PathFileType	4	(X/Y/Z)	Walk7.trc
DataRate	CameraRate	NumFrames	NumMarkers	Units	OrigDataRate	OrigDataStartFrame	OrigNumFrames
200.000000	200.000000	9	60	mm	200.000000	766	814
Frame#	Times		RCAR		LToe		RWRU		RACR1		LUA1		LFA1		LASI		RFHD		LElbow		RLFC		RFA1		RTH3		LLFC		STRN		LCAR		LWRR		LACR1		RTB2		RToe		RWRR		RMT5		RMT1		LWRU		RMFC		RTH2		C7		RTB3		RPSI		LPSI		RCAL		RTB1		LTH3		LTB1		LTB4		LTH1		LTH4		RTB4		CLAV		LMT1		LMFC		RASI		RMMAL		RLMAL		LTH2		RBHD		LBHD		LTB2		LTB3		RElbow		RTH4		RUA1		LMMAL		RBack		LCAL		T10		RTH1		LMT5		LElbowM		RElbowM		LLMAL
			X1	Y1	Z1	X2	Y2	Z2	X3	Y3	Z3	X4	Y4	Z4	X5	Y5	Z5	X6	Y6	Z6	X7	Y7	Z7	X8	Y8	Z8	X9	Y9	Z9	X10	Y10	Z10	X11	Y11	Z11	X12	Y12	Z12	X13	Y13	Z13	X14	Y14	Z14	X15	Y15	Z15	X16	Y16	Z16	X17	Y17	Z17	X18	Y18	Z18	X19	Y19	Z19	X20	Y20	Z20	X21	Y21	Z21	X22	Y22	Z22	X23	Y23	Z23	X24	Y24	Z24	X25	Y25	Z25	X26	Y26	Z26	X27	Y27	Z27	X28	Y28	Z28	X29	Y29	Z29	X30	Y30	Z30	X31	Y31	Z31	X32	Y32	Z32	X33	Y33	Z33	X34	Y34	Z34	X35	Y35	Z35	X36	Y36	Z36	X37	Y37	Z37	X38	Y38	Z38	X39	Y39	Z39	X40	Y40	Z40	X41	Y41	Z41	X42	Y42	Z42	X43	Y43	Z43	X44	Y44	Z44	X45	Y45	Z45	X46	Y46	Z46	X47	Y47	Z47	X48	Y48	Z48	X49	Y49	Z49	X50	Y50	Z50	X51	Y51	Z51	X52	Y52	Z52	X53	Y53	Z53	X54	Y54	Z54	X55	Y55	Z55	X56	Y56	Z56	X57	Y57	Z57	X58	Y58	Z58	X59	Y59	Z59	X60	Y60	Z60

766	3.83	1020.9	895.14	323.18	1059.2	31.135	-57.31	1025.7	930.88	257.05	932.8	1519	141.78	930.91	1355.5	-308.58	998.21	1062.6	-370.29	973.15	1045.8	-199.08	1115	1663	20.33	905.3	1186.4	-358.34	1024.5	553.41	174.37	960.23	1063.6	283.25	980.31	668.12	177.49	865.45	507.89	-183.42	1044.7	1306.6	-44.256	1055.5	905.96	-390.51	1055.5	940.84	-332.15	930.4	1538.9	-228.83	964.12	330.19	146.44	994.4	55.645	94.408	956.95	922.15	313.37	898.69	78.962	154.82	954.84	85.185	75.618	979.02	930.98	-385.66	1026.2	536.96	30.733	994.86	772.42	186.7	829.13	1579	-38.204	924.66	260.83	76.361	743.64	1082.6	6.1582	746.75	1092.9	-102.68	752.15	168.33	62.96	1019.7	406.01	91.695	893.51	655.22	-211.18	900.32	366.41	-71.771	891.94	282.45	-63.726	892.86	826.75	-246.54	893.14	740.49	-229.7	969.92	335.05	83.079	989.93	1478.7	-56.041	1002.3	47.262	-44.805	872.46	511.5	-40.028	931.72	1044.9	56.176	865.58	186.05	26.659	815.04	174.3	113.73	952.53	743.13	-221.74	950.7	1711.4	34.63	955.92	1710.8	-107.28	911.74	274.9	-122.6	885.63	197.77	-56.801	863.89	1185.2	271.61	942.36	744.03	181.24	908.69	1342.1	220.97	861.16	100.26	-11.43	763.66	1462.7	82.96	775.13	45.421	-70.552	763.88	1221.7	-51.796	905.14	824.24	181.46	957.95	26.383	-138.36	873.51	1155.5	-275.03	836.55	1155	182.93	840.26	68.351	-107.86
767	3.835	1025	895.47	322.94	1059.3	31.152	-57.334	1029.8	931.24	256.81	936.76	1518.9	141.56	935.72	1355.4	-308.76	1004	1062.6	-370.51	977.25	1045.7	-199.14	1119.1	1662.8	20.178	910.76	1186.2	-358.43	1031.5	553.94	173.98	964.05	1063.8	283.04	986.67	668.77	177.54	867.74	507.8	-183.39	1048.8	1306.5	-44.455	1061.7	906.16	-390.83	1061.7	940.99	-332.43	934.62	1538.8	-229.05	975.16	329.34	146.29	1011.5	55.555	94.801	961.01	922.33	313.1	915.24	76.839	154.96	971.36	84.124	75.921	985.16	930.93	-385.93	1032.5	537.41	30.408	1000.7	773.19	186.66	833.23	1578.8	-38.533	937.27	259.06	76.318	747.86	1082.4	6.0888	750.92	1092.7	-102.75	766.78	162.72	62.718	1029.3	405.72	91.361	896.44	655.03	-211.15	901.89	366.13	-71.675	892.85	282.21	-63.557	896.45	826.58	-246.53	896.41	740.34	-229.74	981.37	333.87	83.214	994.04	1478.6	-56.259	1002.3	47.348	-44.808	874.79	511.42	-40.011	936.28	1045.1	56.696	879.99	183	26.579	829.46	170.14	113.61	955.75	742.67	-221.56	954.82	1711.2	34.391	960.16	1710.7	-107.52	912.84	274.58	-122.47	886.25	197.55	-56.718	867.53	1185.2	271.42	948.35	744.46	181.35	912.45	1342.1	220.79	861.2	100.24	-11.36	767.68	1462.5	82.601	775.18	45.405	-70.47	768.07	1221.5	-51.962	910.7	824.52	181.67	957.94	26.367	-138.36	879.14	1155.2	-275.09	840.22	1155	182.75	840.36	68.275	-107.83
768	3.84	1029.2	895.76	322.69	1059.3	31.172	-57.357	1033.9	931.55	256.58	940.74	1518.8	141.35	940.5	1355.2	-308.93	1009.8	1062.7	-370.71	981.37	1045.6	-199.2	1123.2	1662.5	20.041	916.15	1185.9	-358.51	1038.3	554.4	173.6	967.87	1063.9	282.83	992.93	669.37	177.57	870.05	507.71	-183.36	1053	1306.3	-44.64	1067.8	906.35	-391.1	1067.8	941.15	-332.67	938.83	1538.6	-229.26	986.18	328.5	146.15	1028.7	55.581	95.192	965.07	922.48	312.84	931.81	74.812	155.11	987.89	83.154	76.22	991.26	930.86	-386.16	1038.8	537.79	30.081	1006.5	773.88	186.61	837.33	1578.6	-38.839	949.88	257.34	76.286	752.09	1082.2	6.039	755.1	1092.6	-102.8	781.53	157.16	62.494	1038.8	405.51	91.117	899.4	654.83	-211.1	903.47	365.84	-71.586	893.78	281.97	-63.384	900.08	826.38	-246.49	899.7	740.17	-229.78	992.75	332.73	83.283	998.16	1478.4	-56.465	1002.3	47.441	-44.808	877.11	511.34	-39.984	940.9	1045.3	57.344	894.44	180.02	26.496	843.95	166.04	113.51	958.98	742.18	-221.34	958.93	1711.1	34.17	964.38	1710.5	-107.74	913.95	274.25	-122.34	886.86	197.31	-56.602	871.2	1185.1	271.25	954.27	744.82	181.4	916.23	1342.1	220.62	861.25	100.18	-11.275	771.71	1462.4	82.264	775.24	45.386	-70.387	772.26	1221.3	-52.114	916.19	824.77	181.86	957.92	26.339	-138.35	884.71	1154.8	-275.14	843.9	1155	182.59	840.45	68.2	-107.8
769	3.845	1033.3	895.99	322.45	1059.3	31.192	-57.378	1038	931.81	256.34	944.74	1518.7	141.15	945.23	1355	-309.09	1015.6	1062.7	-370.87	985.5	1045.4	-199.26	1127.3	1662.3	19.918	921.49	1185.7	-358.58	1045	554.78	173.22	971.7	1064	282.62	999.06	669.9	177.57	872.37	507.6	-183.31	1057.1	1306.2	-44.81	1074	906.54	-391.31	1073.9	941.32	-332.87	943.03	1538.4	-229.46	997.18	327.66	146.01	1045.7	55.731	95.57	969.12	922.59	312.6	948.4	72.89	155.25	1004.4	82.284	76.504	997.29	930.78	-386.35	1044.9	538.11	29.751	1012.1	774.48	186.53	841.42	1578.4	-39.122	962.48	255.65	76.257	756.32	1081.9	6.0087	759.29	1092.4	-102.84	796.37	151.66	62.294	1048.1	405.36	90.938	902.37	654.62	-211.05	905.05	365.55	-71.5	894.74	281.74	-63.211	903.75	826.15	-246.4	903.02	739.99	-229.8	1004.1	331.65	83.293	1002.3	1478.3	-56.658	1002.3	47.535	-44.805	879.43	511.25	-39.95	945.56	1045.5	58.119	908.93	177.11	26.41	858.51	162	113.42	962.22	741.66	-221.07	963.03	1710.9	33.968	968.6	1710.4	-107.95	915.07	273.92	-122.22	887.45	197.07	-56.456	874.9	1185.1	271.1	960.11	745.11	181.4	920.04	1342	220.46	861.3	100.1	-11.177	775.75	1462.2	81.949	775.3	45.368	-70.306	776.46	1221.1	-52.253	921.62	824.96	182.03	957.9	26.299	-138.33	890.22	1154.5	-275.17	847.6	1154.9	182.44	840.55	68.128	-107.77
770	3.85	1037.4	896.16	322.2	1059.3	31.214	-57.397	1042	932.01	256.11	948.75	1518.6	140.96	949.92	1354.9	-309.23	1021.3	1062.7	-371	989.63	1045.1	-199.33	1131.4	1662	19.81	926.77	1185.3	-358.63	1051.5	555.1	172.86	975.54	1064.1	282.42	1005.1	670.37	177.54	874.71	507.48	-183.26	1061.2	1306	-44.965	1080.1	906.73	-391.46	1080	941.51	-333.02	947.22	1538.2	-229.64	1008.2	326.82	145.86	1062.8	56.008	95.919	973.16	922.68	312.36	965.01	71.082	155.38	1020.9	81.523	76.764	1003.3	930.7	-386.49	1051	538.38	29.418	1017.8	774.99	186.43	845.52	1578.2	-39.383	975.06	254.01	76.226	760.56	1081.7	5.9978	763.48	1092.2	-102.85	811.29	146.25	62.126	1057.3	405.28	90.8	905.37	654.39	-210.98	906.64	365.25	-71.418	895.73	281.5	-63.042	907.48	825.88	-246.27	906.37	739.79	-229.79	1015.3	330.62	83.251	1006.4	1478.1	-56.839	1002.3	47.626	-44.798	881.74	511.14	-39.91	950.28	1045.7	59.022	923.44	174.3	26.319	873.11	158.03	113.34	965.46	741.1	-220.77	967.12	1710.7	33.783	972.8	1710.2	-108.13	916.21	273.6	-122.09	888.04	196.81	-56.287	878.63	1185	270.96	965.86	745.32	181.36	923.87	1341.9	220.31	861.35	99.984	-11.069	779.8	1462	81.656	775.36	45.354	-70.229	780.67	1220.9	-52.379	926.97	825.09	182.17	957.88	26.247	-138.3	895.66	1154.1	-275.19	851.33	1154.8	182.31	840.65	68.06	-107.74
771	3.855	1041.5	896.28	321.96	1059.4	31.235	-57.413	1046.1	932.17	255.87	952.78	1518.4	140.78	954.57	1354.6	-309.35	1026.9	1062.7	-371.1	993.78	1044.9	-199.42	1135.5	1661.8	19.717	931.99	1185	-358.67	1058	555.34	172.5	979.39	1064.1	282.23	1011	670.76	177.48	877.06	507.35	-183.21	1065.4	1305.8	-45.105	1086.2	906.91	-391.56	1086.1	941.7	-333.12	951.4	1537.9	-229.82	1019.1	325.99	145.71	1079.7	56.419	96.225	977.19	922.72	312.13	981.62	69.397	155.5	1037.3	80.882	76.991	1009.2	930.62	-386.59	1057.1	538.59	29.079	1023.3	775.4	186.32	849.62	1578	-39.623	987.63	252.42	76.186	764.81	1081.4	6.0056	767.68	1092	-102.85	826.3	140.92	61.996	1066.5	405.25	90.685	908.38	654.16	-210.89	908.23	364.95	-71.339	896.74	281.26	-62.878	911.26	825.56	-246.1	909.76	739.58	-229.77	1026.5	329.66	83.163	1010.5	1477.9	-57.008	1002.3	47.707	-44.784	884.03	511.02	-39.869	955.05	1045.8	60.05	937.96	171.58	26.224	887.77	154.15	113.28	968.7	740.51	-220.41	971.21	1710.4	33.615	977	1710	-108.3	917.35	273.26	-121.96	888.63	196.56	-56.105	882.37	1185	270.83	971.52	745.46	181.26	927.74	1341.8	220.18	861.43	99.853	-10.954	783.86	1461.8	81.385	775.42	45.344	-70.156	784.89	1220.7	-52.493	932.24	825.17	182.28	957.87	26.188	-138.26	901.05	1153.7	-275.2	855.07	1154.8	182.19	840.75	67.996	-107.72
772	3.86	1045.5	896.35	321.71	1059.4	31.253	-57.425	1050.1	932.27	255.64	956.83	1518.2	140.62	959.19	1354.4	-309.46	1032.5	1062.7	-371.16	997.95	1044.6	-199.51	1139.6	1661.5	19.638	937.15	1184.7	-358.7	1064.3	555.5	172.16	983.25	1064.1	282.05	1016.7	671.07	177.39	879.41	507.21	-183.14	1069.5	1305.6	-45.23	1092.4	907.1	-391.6	1092.2	941.9	-333.17	955.57	1537.7	-229.98	1030.1	325.17	145.55	1096.6	56.966	96.475	981.22	922.73	311.91	998.23	67.843	155.59	1053.7	80.369	77.176	1015	930.55	-386.62	1063	538.75	28.733	1028.7	775.73	186.21	853.72	1577.7	-39.842	1000.2	250.89	76.135	769.08	1081	6.0318	771.9	1091.8	-102.84	841.37	135.69	61.912	1075.5	405.27	90.578	911.42	653.91	-210.8	909.81	364.65	-71.261	897.78	281.01	-62.722	915.09	825.22	-245.9	913.17	739.35	-229.72	1037.5	328.75	83.035	1014.7	1477.7	-57.162	1002.3	47.773	-44.764	886.31	510.9	-39.829	959.87	1046	61.201	952.46	168.97	26.125	902.48	150.36	113.23	971.95	739.89	-220.01	975.29	1710.2	33.466	981.2	1709.8	-108.46	918.51	272.93	-121.84	889.21	196.3	-55.915	886.14	1184.9	270.71	977.09	745.53	181.11	931.63	1341.6	220.05	861.52	99.709	-10.836	787.94	1461.6	81.137	775.47	45.34	-70.087	789.13	1220.4	-52.595	937.42	825.18	182.35	957.86	26.124	-138.22	906.37	1153.3	-275.2	858.82	1154.7	182.08	840.86	67.935	-107.69
773	3.865	1049.6	896.36	321.47	1059.4	31.268	-57.432	1054.1	932.31	255.4	960.89	1518	140.46	963.77	1354.1	-309.55	1038.1	1062.7	-371.2	1002.1	1044.2	-199.62	1143.7	1661.2	19.575	942.25	1184.3	-358.72	1070.5	555.58	171.82	987.12	1064	281.87	1022.4	671.31	177.26	881.77	507.06	-183.07	1073.7	1305.4	-45.34	1098.4	907.29	-391.58	1098.2	942.12	-333.16	959.74	1537.4	-230.14	1041	324.37	145.37	1113.4	57.656	96.655	985.23	922.7	311.7	1014.8	66.426	155.66	1070.1	79.993	77.311	1020.9	930.47	-386.61	1069	538.86	28.376	1034	775.97	186.09	857.82	1577.5	-40.04	1012.7	249.42	76.069	773.35	1080.7	6.0754	776.12	1091.5	-102.81	856.5	130.57	61.882	1084.5	405.33	90.464	914.48	653.65	-210.69	911.4	364.34	-71.183	898.84	280.77	-62.577	918.96	824.84	-245.68	916.62	739.1	-229.65	1048.5	327.91	82.873	1018.8	1477.4	-57.302	1002.3	47.819	-44.735	888.58	510.77	-39.794	964.74	1046.2	62.474	966.94	166.47	26.023	917.22	146.66	113.2	975.2	739.22	-219.55	979.38	1709.9	33.334	985.4	1709.6	-108.59	919.66	272.59	-121.7	889.81	196.06	-55.724	889.93	1184.7	270.61	982.55	745.51	180.93	935.54	1341.5	219.92	861.63	99.558	-10.72	792.02	1461.3	80.91	775.52	45.343	-70.022	793.37	1220.1	-52.684	942.51	825.12	182.4	957.85	26.057	-138.16	911.62	1152.8	-275.2	862.6	1154.5	181.99	840.97	67.874	-107.67
774	3.87	1053.6	896.31	321.24	1059.4	31.277	-57.432	1058.1	932.3	255.18	964.97	1517.8	140.31	968.31	1353.8	-309.63	1043.6	1062.7	-371.19	1006.3	1043.8	-199.73	1147.8	1660.9	19.528	947.3	1183.9	-358.74	1076.6	555.58	171.48	991	1063.9	281.7	1027.9	671.46	177.09	884.13	506.91	-183	1077.9	1305.1	-45.433	1104.5	907.47	-391.5	1104.2	942.35	-333.11	963.9	1537.1	-230.28	1051.9	323.59	145.19	1130.2	58.493	96.754	989.24	922.63	311.5	1031.4	65.152	155.69	1086.4	79.759	77.388	1026.6	930.39	-386.53	1074.9	538.91	28.006	1039.3	776.12	185.98	861.93	1577.1	-40.217	1025.1	248.01	75.987	777.64	1080.3	6.1357	780.36	1091.2	-102.76	871.68	125.56	61.914	1093.3	405.41	90.336	917.55	653.38	-210.57	912.97	364.03	-71.105	899.92	280.53	-62.444	922.87	824.43	-245.45	920.1	738.83	-229.57	1059.3	327.13	82.684	1022.9	1477.1	-57.428	1002.2	47.843	-44.698	890.83	510.62	-39.767	969.66	1046.3	63.865	981.39	164.08	25.923	931.99	143.08	113.2	978.45	738.51	-219.04	983.46	1709.6	33.22	989.59	1709.3	-108.71	920.82	272.25	-121.57	890.41	195.82	-55.534	893.75	1184.6	270.52	987.9	745.42	180.71	939.48	1341.3	219.81	861.75	99.405	-10.608	796.12	1461	80.705	775.56	45.355	-69.963	797.64	1219.8	-52.759	947.51	824.99	182.4	957.85	25.991	-138.1	916.82	1152.4	-275.18	866.39	1154.4	181.9	841.08	67.813	-107.65
